<svg id="visual" viewBox="0 0 900 600" width="900" height="600" xmlns="http://www.w3.org/2000/svg" xmlns:xlink="http://www.w3.org/1999/xlink" version="1.1"><rect x="0" y="0" width="900" height="600" fill="#001220"></rect><defs><linearGradient id="grad1_0" x1="33.3%" y1="0%" x2="100%" y2="100%"><stop offset="20%" stop-color="#001220" stop-opacity="1"></stop><stop offset="80%" stop-color="#001220" stop-opacity="1"></stop></linearGradient></defs><defs><linearGradient id="grad2_0" x1="0%" y1="0%" x2="66.7%" y2="100%"><stop offset="20%" stop-color="#001220" stop-opacity="1"></stop><stop offset="80%" stop-color="#001220" stop-opacity="1"></stop></linearGradient></defs><g transform="translate(900, 0)"><path d="M0 324.5C-21.3 297.7 -42.6 270.8 -72 268.5C-101.3 266.2 -138.6 288.5 -162.2 281C-185.9 273.5 -195.9 236.3 -210 210C-224.1 183.7 -242.3 168.3 -257.2 148.5C-272.2 128.7 -283.9 104.4 -294.6 78.9C-305.3 53.5 -314.9 26.7 -324.5 0L0 0Z" fill="#6EDCD9"></path></g><g transform="translate(0, 600)"><path d="M0 -324.5C27.9 -322.4 55.8 -320.4 84 -313.4C112.2 -306.5 140.7 -294.8 157.5 -272.8C174.3 -250.8 179.4 -218.7 200.1 -200.1C220.9 -181.5 257.3 -176.5 272.8 -157.5C288.3 -138.5 282.7 -105.7 287.8 -77.1C293 -48.6 308.7 -24.3 324.5 0L0 0Z" fill="#6EDCD9"></path></g></svg>