<svg id="visual" viewBox="0 0 900 600" width="900" height="600" xmlns="http://www.w3.org/2000/svg" xmlns:xlink="http://www.w3.org/1999/xlink" version="1.1"><rect x="0" y="0" width="900" height="600" fill="#18181b"></rect><path d="M0 281L21.5 274.8C43 268.7 86 256.3 128.8 267.2C171.7 278 214.3 312 257.2 323.5C300 335 343 324 385.8 324.3C428.7 324.7 471.3 336.3 514.2 337.7C557 339 600 330 642.8 316.3C685.7 302.7 728.3 284.3 771.2 264.8C814 245.3 857 224.7 878.5 214.3L900 204L900 601L878.5 601C857 601 814 601 771.2 601C728.3 601 685.7 601 642.8 601C600 601 557 601 514.2 601C471.3 601 428.7 601 385.8 601C343 601 300 601 257.2 601C214.3 601 171.7 601 128.8 601C86 601 43 601 21.5 601L0 601Z" fill="#6edcd9"></path><path d="M0 278L21.5 294.7C43 311.3 86 344.7 128.8 356.8C171.7 369 214.3 360 257.2 347.3C300 334.7 343 318.3 385.8 322C428.7 325.7 471.3 349.3 514.2 353.7C557 358 600 343 642.8 341.3C685.7 339.7 728.3 351.3 771.2 354.5C814 357.7 857 352.3 878.5 349.7L900 347L900 601L878.5 601C857 601 814 601 771.2 601C728.3 601 685.7 601 642.8 601C600 601 557 601 514.2 601C471.3 601 428.7 601 385.8 601C343 601 300 601 257.2 601C214.3 601 171.7 601 128.8 601C86 601 43 601 21.5 601L0 601Z" fill="#26ceee"></path><path d="M0 431L21.5 421.5C43 412 86 393 128.8 384.3C171.7 375.7 214.3 377.3 257.2 387C300 396.7 343 414.3 385.8 418.2C428.7 422 471.3 412 514.2 416.3C557 420.7 600 439.3 642.8 434.3C685.7 429.3 728.3 400.7 771.2 382C814 363.3 857 354.7 878.5 350.3L900 346L900 601L878.5 601C857 601 814 601 771.2 601C728.3 601 685.7 601 642.8 601C600 601 557 601 514.2 601C471.3 601 428.7 601 385.8 601C343 601 300 601 257.2 601C214.3 601 171.7 601 128.8 601C86 601 43 601 21.5 601L0 601Z" fill="#00bbff"></path><path d="M0 478L21.5 473C43 468 86 458 128.8 449.2C171.7 440.3 214.3 432.7 257.2 426.5C300 420.3 343 415.7 385.8 428.8C428.7 442 471.3 473 514.2 488.2C557 503.3 600 502.7 642.8 502.7C685.7 502.7 728.3 503.3 771.2 504.2C814 505 857 506 878.5 506.5L900 507L900 601L878.5 601C857 601 814 601 771.2 601C728.3 601 685.7 601 642.8 601C600 601 557 601 514.2 601C471.3 601 428.7 601 385.8 601C343 601 300 601 257.2 601C214.3 601 171.7 601 128.8 601C86 601 43 601 21.5 601L0 601Z" fill="#739cff"></path><path d="M0 529L21.5 529C43 529 86 529 128.8 522.7C171.7 516.3 214.3 503.7 257.2 503.2C300 502.7 343 514.3 385.8 524C428.7 533.7 471.3 541.3 514.2 543.2C557 545 600 541 642.8 541.7C685.7 542.3 728.3 547.7 771.2 545.5C814 543.3 857 533.7 878.5 528.8L900 524L900 601L878.5 601C857 601 814 601 771.2 601C728.3 601 685.7 601 642.8 601C600 601 557 601 514.2 601C471.3 601 428.7 601 385.8 601C343 601 300 601 257.2 601C214.3 601 171.7 601 128.8 601C86 601 43 601 21.5 601L0 601Z" fill="#e15fed"></path></svg>